<svg id="Layer_1" data-name="Layer 1" xmlns="http://www.w3.org/2000/svg" viewBox="0 0 60.36 78.99"><defs><style>.cls-1{fill:#d7d7e0;}.cls-2{fill:#f0484d;}</style></defs><title>01</title><path class="cls-1" d="M21.9,21.64s6.46,4.56,10.37,4.92,9.06,1.36,9.06,1.36V41L42,43v2.18L40,48,37.9,52l-3.44,3.17L30.11,56.6l-5.75-2.1-4.85-3.2L16.23,44l1.18-4.92-.55-4.19.55-3.69,3.72-11.09Z"/><path class="cls-2" d="M4.36,73.78a5.71,5.71,0,0,1-.48-1.84c.59-5,2.72-9,7.92-10.65,2.64-.84,5.21-1.9,7.83-2.8a2.06,2.06,0,0,0,1.46-1.66,5.3,5.3,0,0,0-2.25-6c-.27-.16-.77,0-1.15.06-1.79.39-3.8-.27-4.38-1.74a8,8,0,0,1-.28-3,1.46,1.46,0,0,0-.88-1.64,3.66,3.66,0,0,1-2.09-3.42,34.55,34.55,0,0,1,0-5.09A11.38,11.38,0,0,1,11.47,33,3.5,3.5,0,0,0,12,31.66c0-1.82-.17-3.64-.19-5.46,0-4.59,1.53-8.41,5.35-11.17a1.84,1.84,0,0,0,.66-1.3,2.37,2.37,0,0,1,2.06-2.65A18.89,18.89,0,0,1,24,10.27a88.75,88.75,0,0,1,12.86.81c5.64,1,9.41,5.93,10.29,12.28a21.55,21.55,0,0,1-.55,7.88,1.31,1.31,0,0,0,.45,1.48,4.82,4.82,0,0,1,1.17,1.86c1,2.81-.64,7.84-3.25,9.28a6.89,6.89,0,0,0-2.58,3,70.94,70.94,0,0,1-4.46,6.53c-1.08,1.41-.48,4.38,1.19,5,2.54.9,5,1.88,7.62,2.66,5.83,1.78,7.9,6.4,8.32,10.76a6.25,6.25,0,0,1-.46,2ZM20.71,50c1.13,1.06,2,2,2.94,2.73,4.41,3.46,9.1,3.12,13-.89a21.43,21.43,0,0,0,4.6-7.46,1.29,1.29,0,0,0-.1-1,7.74,7.74,0,0,1-1.09-4.64c0-3,.07-6,.17-9,0-.91-.28-1.2-1.15-1.34-2.74-.43-5.47-.93-8.19-1.46-3.53-.68-6.54-2.5-9.55-4.42a2.81,2.81,0,0,0-.33.56C20,26.42,18.87,29.68,17.83,33a2.27,2.27,0,0,0,0,1c.44,3.15,1,6.3-.36,9.39a.83.83,0,0,0,0,.58c.65,1.45,1.33,2.9,2,4.34,2.08-.59,3.91-1.08,5.73-1.65a1.36,1.36,0,0,0,.74-.8,4.26,4.26,0,0,1,4.15-3.27,4.09,4.09,0,0,1,4.29,3.65A3.84,3.84,0,0,1,30.29,50a12.09,12.09,0,0,1-3.2-1.08c-.35-.12-.75-.43-1.05-.35C24.36,48.94,22.7,49.46,20.71,50ZM6.13,71.64H52.91a9,9,0,0,0-6-8.29c-2.68-1-5.4-1.87-8.06-2.9a1.32,1.32,0,0,0-1.89.6c-2.07,3.06-4.21,6.06-6.34,9.07-.79,1.1-1.42,1.1-2.22,0-.22-.3-.43-.61-.64-.92L21.28,60c-3.51,1.28-7,2.44-10.41,3.82C8.17,65,6,68.75,6.13,71.64ZM42.27,33.29c.89-.8,1.92-1.27,2.15-2a17.3,17.3,0,0,0,.48-8.72c-1-5-3.67-8.67-8.83-9.58a81.47,81.47,0,0,0-11.5-.73,17.78,17.78,0,0,0-3.42.55c-.84.14-1.33.51-1.24,1.48a2.35,2.35,0,0,1-1.34,2.32,9.83,9.83,0,0,0-4.27,5.89c-.92,3.13-.16,6.25-.22,9.4l1.81.42c.16-.57.26-1,.42-1.52,1-3,2-6,3.14-9,.81-2,1.33-2.11,3.13-.88a26.12,26.12,0,0,0,11.64,4.67c2.09.27,4.16.76,6.25,1.06a1.82,1.82,0,0,1,1.8,2.06C42.26,30.1,42.27,31.49,42.27,33.29ZM23.47,55.21a5,5,0,0,0,1,5.88,29.9,29.9,0,0,1,2.3,3.23l2.69,3.81c2.16-3.08,4.23-6,6.28-9a1.38,1.38,0,0,0,.15-.9c-.17-.86-.42-1.71-.65-2.64C31.23,57.89,27.27,57.46,23.47,55.21ZM16.12,38.59c0-.87,0-1.74,0-2.61a2,2,0,0,0-4,0c-.07,1.69-.07,3.39,0,5.09a2,2,0,0,0,4,0C16.16,40.26,16.11,39.42,16.12,38.59ZM42,39.08a22.69,22.69,0,0,0,.68,2.73,1.2,1.2,0,0,0,1.08.43c1.8-1,3.22-5.13,2.52-7.1-.49-1.37-1.54-1.6-2.54-.52A6.84,6.84,0,0,0,42,39.08ZM30.11,48c1.25,0,2.19-.76,2.16-1.73a1.94,1.94,0,0,0-2.15-1.62c-1.23,0-2.2.76-2.16,1.73A2,2,0,0,0,30.11,48Zm-12.68.8L15.34,44.6C14.58,47.9,15.21,49.42,17.43,48.75Z"/></svg>