<svg id="Layer_1" data-name="Layer 1" xmlns="http://www.w3.org/2000/svg" viewBox="0 0 71.01 85.65"><defs><style>.cls-1{fill:#f0484d;}.cls-2{fill:#d7d7e0;}</style></defs><title>01</title><path class="cls-1" d="M23.55,80.43a5.86,5.86,0,0,1-4.16-6.54c.09-1.17,0-2.36,0-3.53.07-1.93,0-3.56-1.85-5-2.27-1.8-2.08-10.78-.11-13a5.3,5.3,0,0,1,4.06-1.73c4.87-.13,9.76-.13,14.59-.67,4.41-.5,8.41-2.5,12.23-4.74a4.05,4.05,0,0,0,1.35-1.52c1.32-2.32,3.44-3.42,5.69-2.86a5.33,5.33,0,0,1,3.77,5.18c0,1.41,0,2.82,0,4.23,0,2.07-.16,3.91,1.92,5.54,2.28,1.8,1.81,5.1-.63,6.84a2.79,2.79,0,0,0-1.31,2.76c.09,2,0,4,0,6,0,2.78-1.48,4.86-3.83,5.47s-4.29-.49-5.71-3a3.12,3.12,0,0,0-1.3-1.32Q42.67,70.14,37,67.91c-.42-.16-1.34,0-1.5.27-1.31,2.42-3.61,3.22-6.23,3.9.33,3.51.14,6.88-3.9,8.35ZM32.74,64c5.89.43,11.24,2.54,16.43,5.19v-20L32.74,54.5Zm19.79-5c0,4.3,0,8.6,0,12.9,0,1.66,1,2.49,2.3,1.8a2.81,2.81,0,0,0,1-2.14c.07-8.42,0-16.84,0-25.26,0-1.2-.11-2.3-1.76-2.23s-1.59,1.06-1.58,2.21C52.53,50.44,52.52,54.68,52.53,58.92Zm-23.27,4.9v-9.9H21c-1.22,0-1.67.71-1.68,1.8,0,2.12,0,4.23,0,6.35,0,1.09.47,1.77,1.7,1.76C23.73,63.8,26.44,63.82,29.26,63.82Zm-6.52,3.42c0,2.92-.08,5.68.08,8.43,0,.53,1,1.32,1.56,1.41s1.53-.74,1.55-1.19c.15-2.85.07-5.72.07-8.65Zm9.05.41c-2.42-.74-2.53-.69-2.3,1Z"/><path class="cls-2" d="M63,33.16a4.26,4.26,0,0,1-4.86,2.73A3.07,3.07,0,0,0,55.2,37.1,29.2,29.2,0,0,1,52.3,40a1.68,1.68,0,0,1-1.38.4,1.65,1.65,0,0,1-.7-1.25c-.1-1,0-2.05,0-3.23H45c-2.16,0-4.31,0-6.47,0a2,2,0,0,0-1.16.62C36,38,34.58,39.45,33.24,41a2.29,2.29,0,0,0-.57,1.24c-.08.94,0,1.91-.06,2.85A1.62,1.62,0,0,1,32,46.22a1.39,1.39,0,0,1-1.3-.28c-1.57-2.31-3.62-2.25-6.18-2-8.57.83-16.29-5.49-17.25-13.06A1.72,1.72,0,0,0,7,30.43v-3a1.05,1.05,0,0,0,.17-.31,14.57,14.57,0,0,1,8.12-11.25,39.75,39.75,0,0,1,6.38-2.11h3.23a11.86,11.86,0,0,1,1.79.38c2.39.9,4.77,1.85,7.12,2.77.14-1.48,1.3-2.45,2.77-3.15H60.23A5.48,5.48,0,0,1,63,16.5ZM30.33,42.33c-.49-2.06.86-2.73,2.07-3.64A12.17,12.17,0,0,0,33.54,20a15.18,15.18,0,0,0-19.27-1,12.19,12.19,0,0,0-2,17.79c3.65,4.27,8.46,5.54,13.89,4.62C27.63,41.21,29.12,40.41,30.33,42.33Zm22.15-6.1.26.27a5.81,5.81,0,0,1,6.19-2.91c1.43.2,1.75-.25,1.76-1.69q0-7.08,0-14.15c0-1.37-.32-1.69-1.68-1.7-2.32,0-4.64,0-6.95,0-4.72,0-9.44,0-14.16,0-.57,0-1.57.38-1.62.7-.19,1.21-.48,2.48.43,3.66a13.07,13.07,0,0,1,2.88,9c-.08,1.38-.41,2.75-.63,4.2H50.62c1.62,0,1.83.21,1.86,1.86C52.49,35.74,52.48,36,52.48,36.23Z"/><path class="cls-1" d="M16.36,31.19A2.54,2.54,0,0,1,14,28.9a2.52,2.52,0,0,1,2.25-2.25,2.52,2.52,0,0,1,2.42,2.23A2.57,2.57,0,0,1,16.36,31.19Z"/><path class="cls-1" d="M23.28,26.65a2.46,2.46,0,0,1,2.38,2.24,2.47,2.47,0,0,1-2.31,2.3A2.5,2.5,0,0,1,21,28.89,2.5,2.5,0,0,1,23.28,26.65Z"/><path class="cls-1" d="M32.64,28.87a2.29,2.29,0,1,1-2.38-2.22A2.43,2.43,0,0,1,32.64,28.87Z"/><path class="cls-1" d="M46.72,26.44V24.33H57v2.11Z"/><path class="cls-1" d="M44.25,24.31v2.2H42.14v-2.2Z"/><path class="cls-1" d="M21.88,60.09v-2.4h5v2.4Z"/></svg>