<svg id="Layer_1" data-name="Layer 1" xmlns="http://www.w3.org/2000/svg" viewBox="0 0 72.74 66.81"><defs><style>.cls-1{fill:#fff;}.cls-2{fill:#d7d7e0;}.cls-3{fill:#f0484d;}</style></defs><title>01</title><path class="cls-1" d="M27.49,13.58V8.08H40.76v5.5Z"/><path class="cls-1" d="M11.11,28.93V27.35h46l.07,1.58Z"/><path class="cls-1" d="M40.26,31.13h7a3.45,3.45,0,0,1-3.59,2.73A3.38,3.38,0,0,1,40.26,31.13Z"/><path class="cls-1" d="M20.91,31.11h7a3.19,3.19,0,0,1-2.84,2.7C23.35,34.09,21.84,33.16,20.91,31.11Z"/><path class="cls-1" d="M30.55,31.11h7a3.34,3.34,0,0,1-3,2.72C32.86,34,31.4,33.1,30.55,31.11Z"/><path class="cls-1" d="M18.5,31.18A3.72,3.72,0,0,1,15,33.83c-1.64.09-2.87-.81-3.62-2.65Z"/><path class="cls-2" d="M34.07,58.59H28c-1.26,0-1.75-.51-1.75-1.79,0-2.83,0-5.66,0-8.5a2.66,2.66,0,0,1,.15-1,1.08,1.08,0,0,1,1.44-.74,20.92,20.92,0,0,0,6.9.75,49.49,49.49,0,0,0,5.14-.67c1.33-.23,1.92.15,1.93,1.53,0,2.17,0,4.34,0,6.51,0,.74,0,1.48,0,2.22,0,1.12-.52,1.65-1.64,1.65C38.16,58.6,36.11,58.59,34.07,58.59Zm1.62-3c-.21-.88-.45-1.67-.59-2.48a1.37,1.37,0,0,1,.2-.93,1.68,1.68,0,0,0-2.38-2.36,1.59,1.59,0,0,0-.1,2.32.9.9,0,0,1,.2,1c-.22.78-.39,1.56-.6,2.43Z"/><path class="cls-2" d="M37.48,46c0-1.19.07-2.26,0-3.32a3.11,3.11,0,0,0-2.75-2.85,3.14,3.14,0,0,0-3.49,2.12A7.29,7.29,0,0,0,31,43.74c0,.71,0,1.43,0,2.29-.76-.14-1.45-.25-2.13-.4a.52.52,0,0,1-.27-.37,19.34,19.34,0,0,1,.2-3.74,5.57,5.57,0,0,1,6.3-4.14A5.71,5.71,0,0,1,40,43c0,.33,0,.66,0,1,0,1.53,0,1.53-1.51,1.78Z"/><path class="cls-3" d="M35.69,55.62H32.42c.21-.87.38-1.65.6-2.43a.9.9,0,0,0-.2-1,1.59,1.59,0,0,1,.1-2.32,1.68,1.68,0,0,1,2.38,2.36,1.37,1.37,0,0,0-.2.93C35.24,54,35.48,54.74,35.69,55.62Z"/><path class="cls-3" d="M60.29,61.31H54.45V35.8c2.24-.62,4-1.92,4.43-4.21a15.48,15.48,0,0,0,0-6.25c-1.23-4.79-2.91-9.47-4.36-14.21a1.55,1.55,0,0,0-1.76-1.29c-2.61.05-5.23,0-7.84,0H42.78c0-.95,0-1.67,0-2.38C42.85,6.41,42.35,6,41.33,6H26.87c-.94,0-1.43.4-1.39,1.4,0,.79,0,1.59,0,2.46-3.36,0-6.49.07-9.61,0a2,2,0,0,0-2.29,1.65c-1.2,4-2.55,8-3.69,12a28.25,28.25,0,0,0-.75,5.11c-.33,3.6,1,6.18,4.65,7.21v25.5c-1.81,0-3.54,0-5.26,0-.85,0-2.19-.41-2.24.91,0,1.47,1.38,1.05,2.26,1.05q21.82,0,43.67,0c2.67,0,5.33.06,8,0,.61,0,1.68-.57,1.72-.95C62.05,61.28,61.08,61.3,60.29,61.31ZM27.49,8.08H40.76v5.5H27.49ZM15.41,12.61a1.34,1.34,0,0,1,1-.73c3-.05,5.93,0,9.11,0,0,.89,0,1.64,0,2.39-.05,1.06.44,1.45,1.48,1.44q7.14,0,14.29,0c1.12,0,1.61-.42,1.54-1.54,0-.7,0-1.41,0-2.29,3.19,0,6.19,0,9.2,0a1.21,1.21,0,0,1,.86.68c1.32,4.13,2.6,8.27,3.93,12.56H11.49C12.81,20.87,14.08,16.73,15.41,12.61Zm-4.3,14.74h46c0,.48,0,1,.07,1.58H11.11Zm36.15,3.78a3.45,3.45,0,0,1-3.59,2.73,3.38,3.38,0,0,1-3.41-2.73Zm-9.7,0a3.34,3.34,0,0,1-3,2.72c-1.69.2-3.15-.73-4-2.72Zm-9.66,0a3.19,3.19,0,0,1-2.84,2.7c-1.71.28-3.22-.65-4.15-2.7Zm-16.53.07H18.5A3.72,3.72,0,0,1,15,33.83C13.35,33.92,12.12,33,11.37,31.18Zm40.91,30H17.8v0l-1.75.09V36l3.76-2.4c3.55,3,6.17,3,9.13.22,1.81.72,3.41,1.67,5.12,1.94,1.9.3,3.54-.79,4.78-2.28,4,3.15,6.11,3.15,9.6.12l3.84,2.43Zm-2.5-30.1h7a3.19,3.19,0,0,1-2.9,2.74C52,34.06,50.61,33.17,49.78,31.11Z"/></svg>