<svg id="Layer_1" data-name="Layer 1" xmlns="http://www.w3.org/2000/svg" viewBox="0 0 98.16 62.91"><defs><style>.cls-1{fill:#f0484d;}.cls-2{fill:#d7d7e0;}</style></defs><title>01</title><path class="cls-1" d="M74.35,50.79c-2.95,0-5.91,0-8.86,0a1.34,1.34,0,0,0-1.47.95,13.7,13.7,0,0,1-13.84,8.42c-5.5-.44-9.4-3.34-11.69-8.34a1.49,1.49,0,0,0-1.62-1c-5.87,0-11.75,0-17.62,0a1.21,1.21,0,0,1-1.38-1,35.31,35.31,0,0,1,25-45.51C62.28-.68,82.44,12.3,86,32a36.13,36.13,0,0,1-1.27,17.87,1.1,1.1,0,0,1-1.28.89C80.39,50.77,77.37,50.79,74.35,50.79ZM30.94,47c3,0,5.91,0,8.86,0,.76,0,1.06.14,1.2,1a10.42,10.42,0,0,0,20.53.28c.2-1.09.59-1.28,1.58-1.27C69,47,74.78,47,80.62,47c.7,0,1-.2,1.15-.88a32.35,32.35,0,0,0,.74-11A31.4,31.4,0,1,0,20.78,45.9,1.19,1.19,0,0,0,22.18,47C25.1,46.93,28,47,30.94,47Z"/><path class="cls-2" d="M68.38,38.34V36.55c1.09,0,2.13,0,3.17,0,.69,0,.9-.18.83-.9a21.33,21.33,0,0,0-1.93-7.14c-.11-.25-.25-.48-.43-.81l-3.5,2-.9-1.53,3.48-2.06a21,21,0,0,0-6.42-6.47l-2.07,3.49-1.55-.86,2-3.55a20.79,20.79,0,0,0-8.82-2.38c0,1.11,0,2.14,0,3.18.05.74-.22.92-.93.93s-.95-.26-.91-1a22,22,0,0,0,0-2.57c0-.19-.33-.55-.49-.54a18.73,18.73,0,0,0-8.2,2.3,1,1,0,0,0-.06.18l1.43,2.5c.52.93.52.93-.44,1.46l-.62.31L40,19.61a21.1,21.1,0,0,0-6.47,6.46L37,28.17l-.91,1.53c-1-.59-2-1.14-3-1.72-.41-.24-.66-.25-.89.24a22.11,22.11,0,0,0-2,7.46c-.06.74.21.91.87.88,1,0,2.08,0,3.13,0a4.34,4.34,0,0,1,.11.5c.09,1.29.09,1.29-1.19,1.29-1.87,0-3.75,0-5.62,0-.7,0-1-.15-1-.91a24.73,24.73,0,0,1,48.73-6A39.5,39.5,0,0,1,76,37.56c0,.24-.29.74-.46.74C73.2,38.35,70.83,38.34,68.38,38.34Z"/><path class="cls-2" d="M51.3,48a4.44,4.44,0,0,1-.37-8.87,1.8,1.8,0,0,0,1.37-.73q5.89-7,11.82-13.93c.25-.3.43-.76,1-.35s.15.67,0,1q-4.57,8-9.18,16a1.93,1.93,0,0,0-.26,1.54A4.4,4.4,0,0,1,51.3,48Z"/></svg>