<svg id="Layer_1" data-name="Layer 1" xmlns="http://www.w3.org/2000/svg" viewBox="0 0 95.01 84.47"><defs><style>.cls-1{fill:#f0484d;}.cls-2{fill:#d7d7e0;}</style></defs><title>01</title><path class="cls-1" d="M52.11,62.24v5.11a15.38,15.38,0,0,1,1.78,1,5.1,5.1,0,1,1-8.18,3.57,1.21,1.21,0,0,1,1.22-1.12,1.27,1.27,0,0,1,1.34,1.1c0,.34,0,.7.08,1a2.53,2.53,0,0,0,2.75,2,2.54,2.54,0,0,0-.21-5.06c-1.56-.09-1.89-.59-1.4-2.14a1.1,1.1,0,0,0,0-.31V62.29l-3-.22a37.1,37.1,0,0,1-10.75-2.51.9.9,0,0,0-1.15.26C33.45,61,32.24,62.23,31,63.44a5.16,5.16,0,0,1,.07,5,5.1,5.1,0,1,1-2.6-7.11.93.93,0,0,0,1.27-.25c.88-1,1.83-1.84,2.82-2.82-.33-.19-.59-.35-.86-.49A36.92,36.92,0,0,1,19.9,48.27a10.3,10.3,0,0,1,.35-13.35c1.11-1.27,2.34-2.46,3.56-3.64a1.31,1.31,0,0,1,2,0,1.37,1.37,0,0,1-.27,2,50.76,50.76,0,0,0-3.72,3.91,7.65,7.65,0,0,0,.25,9.67A36.56,36.56,0,0,0,42.81,58.89a39.79,39.79,0,0,0,12,.6,36.6,36.6,0,0,0,20.64-8.66,36.17,36.17,0,0,0,4.11-4.1,7.62,7.62,0,0,0,0-9.79A35.85,35.85,0,0,0,66.51,27.2a36.24,36.24,0,0,0-10.09-2.85,42.25,42.25,0,0,0-10-.09,39.15,39.15,0,0,0-16.74,5.86,1.33,1.33,0,0,1-2-.36,1.35,1.35,0,0,1,.63-1.88c.69-.43,1.4-.85,2.11-1.25s1.39-.75,2.12-1.14a2.71,2.71,0,0,0-.26-.34l-3.08-3.1a5.34,5.34,0,0,1-3.9.52,5.1,5.1,0,1,1,6-3,.94.94,0,0,0,.24,1.27c1.07,1,2.09,2,3.1,3.09a.87.87,0,0,0,1.1.27A37.71,37.71,0,0,1,46.9,21.6c.85-.05,1.69-.14,2.58-.22V16.26c-2.91-1.34-4.24-3.48-3.69-6a5.1,5.1,0,0,1,10-.08c.58,2.55-.68,4.64-3.72,6.08v5.09l3,.23a37.32,37.32,0,0,1,10.82,2.52c.32.13.58.22.9-.11,1.23-1.28,2.5-2.52,3.77-3.79A5.13,5.13,0,0,1,70,16.58a5.1,5.1,0,0,1,10.07.61,5,5,0,0,1-4.19,5.43A8.53,8.53,0,0,1,73,22.27c-.4-.09-.64-.16-1,.17-1,1-1.94,1.95-3,3l1.16.63a36.81,36.81,0,0,1,11.6,9.39,10.39,10.39,0,0,1-.57,13.48c-3.69,4-6.5,6.19-12.11,9.25.13.17.24.33.37.47.56.57,1.17,1.1,1.68,1.7a2.05,2.05,0,0,0,2.63.8,4.84,4.84,0,0,1,5.77,2.51,5.11,5.11,0,1,1-9.21.36.75.75,0,0,0-.15-1C69,61.92,68,60.78,66.82,59.71a.9.9,0,0,0-.78-.19A39.64,39.64,0,0,1,52.11,62.24ZM50.82,8.71a2.6,2.6,0,0,0-2.56,2.52,2.54,2.54,0,1,0,5.08,0A2.61,2.61,0,0,0,50.82,8.71ZM26.59,15.08a2.55,2.55,0,1,0,2.55,2.54A2.61,2.61,0,0,0,26.59,15.08ZM75,20.17a2.61,2.61,0,0,0,2.56-2.52A2.64,2.64,0,0,0,75,15.08a2.61,2.61,0,0,0-2.57,2.52A2.64,2.64,0,0,0,75,20.17ZM26.58,68.58a2.61,2.61,0,0,0,2.56-2.52,2.64,2.64,0,0,0-2.53-2.57A2.61,2.61,0,0,0,24.05,66,2.64,2.64,0,0,0,26.58,68.58Zm51-2.52A2.55,2.55,0,1,0,75,68.58,2.61,2.61,0,0,0,77.55,66.06Z"/><path class="cls-1" d="M67.43,41.86a16.76,16.76,0,0,1-1,5.53,1.22,1.22,0,0,1-1.35.87,1.18,1.18,0,0,1-1.12-1.07,2.24,2.24,0,0,1,.14-.92,14,14,0,1,0-15.55,9.37A13.73,13.73,0,0,0,57.66,54c.24-.13.45-.28.69-.41a1.3,1.3,0,0,1,1.8.41,1.25,1.25,0,0,1-.49,1.78A16.55,16.55,0,1,1,67.15,39C67.32,40,67.34,40.91,67.43,41.86Z"/><path class="cls-2" d="M47.65,45.73c.56,1.43,1.16,2.84,1.68,4.27a1.75,1.75,0,0,1,0,1.27,1.73,1.73,0,0,1-1.1.72c-.63.12-1-.33-1.26-.89-.65-1.62-1.27-3.25-2-4.85a1.53,1.53,0,0,0-.84-.78,5.21,5.21,0,0,1-3.55-5.72,5.09,5.09,0,0,1,5.07-4.29c1.51,0,3,0,4.54-.07a5.49,5.49,0,0,0,4.12-2.54,2.71,2.71,0,0,1,2.92-1.17,2.78,2.78,0,0,1,2.3,2,2.58,2.58,0,0,1,.11.78q0,6,0,12a2.85,2.85,0,0,1-2,2.81,2.73,2.73,0,0,1-3.25-1,6,6,0,0,0-5.6-2.69l-.95,0A.94.94,0,0,0,47.65,45.73ZM49.57,43l.17.08a8.19,8.19,0,0,1,6.58,3.43,1.84,1.84,0,0,0,.56.35,2.3,2.3,0,0,0,.28-.75q0-5.57,0-11.13a3,3,0,0,0-.27-.76,2.85,2.85,0,0,0-.65.47A8.13,8.13,0,0,1,51,37.89c-.48.08-1,.12-1.45.18Zm-2.62-5c-1.37-.13-2.63-.08-3.41,1.21A2.35,2.35,0,0,0,43.61,42c.82,1.21,2,1.24,3.34,1.11Z"/><path class="cls-1" d="M64.18,51.28a1.56,1.56,0,0,1-1.61,1.4,1.22,1.22,0,0,1-1.11-1.37A1.6,1.6,0,0,1,63,49.89,1.27,1.27,0,0,1,64.18,51.28Z"/></svg>