<svg id="Layer_1" data-name="Layer 1" xmlns="http://www.w3.org/2000/svg" viewBox="0 0 95.01 84.33"><defs><style>.cls-1{fill:#f0484d;}.cls-2{fill:#d7d7e0;}</style></defs><title>01</title><path class="cls-1" d="M71,24.15c-.82,4.38-1.17,8.59-2.41,12.51C63.87,51.51,54,61.29,39,65.89a3.56,3.56,0,0,1-1.67.33A2.13,2.13,0,0,1,36,65.16c-.13-.32.32-1.06.71-1.36a4.38,4.38,0,0,1,1.62-.55A40.93,40.93,0,0,0,67.79,24.38c0-3.08,0-3.08,3.16-3.09h3.47c.13,0,.27-.07.76-.19l-10.12-12L54.72,21.3c2.13,0,3.82,0,5.5,0s2.21.64,2.05,2.23C61.07,36,54.79,45,43.65,50.68,43,51,42,50.54,41.2,50.44c.46-.75.72-1.86,1.39-2.2A30.1,30.1,0,0,0,59,27.16c.2-.89.26-1.82.42-3-2.34,0-4.48.07-6.62,0-.77,0-1.9-.34-2.16-.87s.24-1.62.72-2.19c4-4.77,8-9.46,12-14.22,1.25-1.49,2.2-1.51,3.45,0,4,4.76,8,9.45,12,14.22.49.58,1,1.68.75,2.17s-1.39.86-2.16.9C75.14,24.22,72.92,24.15,71,24.15Z"/><path class="cls-2" d="M29.18,32.23c.19-.43.32-.75.47-1.07.58-1.24,1-3.42,1.78-3.55a13.71,13.71,0,0,1,6.52.46c1,.35,2.11,2.28,2.18,3.55.26,4.67.1,9.36.11,14.05,0,1.92-1.15,2.89-2.86,3.26s-2.06,1.18-2.09,2.83c-.12,6.41-.49,12.82-.67,19.23,0,1.66-.63,2.34-2.32,2.26a59.61,59.61,0,0,0-6.27,0c-1.84.09-2.31-.72-2.36-2.44-.17-6.49-.54-13-.7-19.45,0-1.4-.5-2.1-1.81-2.39-2.17-.48-3.05-1.89-3-4.08.06-4.11,0-8.22,0-12.33,0-3.52,1.69-5.17,5.17-5.2C27.49,27.31,27.49,27.31,29.18,32.23Zm2.65,38.18c0-.8.09-1.5.11-2.21.19-5.69.5-11.38.5-17.07,0-2.64.82-4.15,3.48-4.71a2.49,2.49,0,0,0,1.56-1.75c.14-4.1.06-8.21.07-12.32,0-1.26-.43-2.19-1.84-2.1s-3-.79-3.4,1.5a55.26,55.26,0,0,1-1.73,6.45c-.21.63-1,1.07-1.46,1.6-.5-.54-1.23-1-1.43-1.64A46.91,46.91,0,0,1,26,31.69c-.38-2.26-2-1.33-3.18-1.44C21.41,30.12,21,31,21,32.32c0,4.1,0,8.21.06,12.32,0,.59.62,1.61,1.08,1.69,3.24.54,3.93,2.6,3.66,5.45a26.65,26.65,0,0,0,0,3.46c.19,5,.4,10,.6,15.17Z"/><path class="cls-1" d="M70.5,57.43c0-4.32,0-8.64,0-13,0-1.82.56-2.7,2.47-2.58,1.58.1,3.17.06,4.75,0,1.42,0,2.17.52,2.16,2q0,13.71,0,27.42c0,1.34-.68,1.94-2,1.9-1.72,0-3.45-.06-5.18,0s-2.17-.69-2.16-2.21C70.52,66.49,70.5,62,70.5,57.43Zm6.32,13V44.76H73.58V70.54h1.71Z"/><path class="cls-1" d="M61.21,70.46h3.63V68.1q0-8.1,0-16.19c0-1.15.06-2.44,1.51-2.26.53.06,1.28,1.45,1.29,2.25.1,6.33,0,12.67.07,19,0,1.6-.53,2.43-2.27,2.34s-3.31-.06-5,0c-1.43,0-2.13-.5-2.12-2,0-4-.06-7.92.08-11.88,0-.67.92-1.32,1.41-2,.46.7,1.29,1.39,1.32,2.1C61.29,63.06,61.21,66.65,61.21,70.46Z"/><path class="cls-2" d="M23.21,18.61a5.8,5.8,0,0,1,5.73-6,5.92,5.92,0,0,1,6.21,5.81,6,6,0,0,1-6,6.1A5.93,5.93,0,0,1,23.21,18.61Zm9.16-.19a3.3,3.3,0,0,0-3.2-3.15,3.38,3.38,0,0,0-3.27,3.32,3.3,3.3,0,0,0,3.44,3.11A3.26,3.26,0,0,0,32.37,18.42Z"/><path class="cls-1" d="M49,70.41h3.7c0-2.25-.12-4.46.07-6.65.06-.77.87-1.48,1.34-2.22.46.69,1.28,1.35,1.32,2.07.17,2.5.06,5,.07,7.54,0,1.4-.52,2.15-2,2.09-1.72-.07-3.45,0-5.17,0-.22,0-.55.07-.63,0-.51-.71-1.43-1.52-1.35-2.19.25-1.93-1.21-4.23,1-5.7.18-.11,1.45.81,1.59,1.4A17.44,17.44,0,0,1,49,70.41Z"/></svg>