<svg id="Layer_1" data-name="Layer 1" xmlns="http://www.w3.org/2000/svg" viewBox="0 0 96.23 95.62"><defs><style>.cls-1{fill:#d7d7e0;}.cls-2{fill:#f0484d;}</style></defs><title>01</title><path class="cls-1" d="M89.08,73.94A12.82,12.82,0,0,1,75.72,86.66,13,13,0,0,1,63.18,73.58,13.09,13.09,0,0,1,76.61,60.8,12.94,12.94,0,0,1,89.08,73.94Z"/><path class="cls-1" d="M64.29,8.45a12.76,12.76,0,0,1,13,12.9,12.89,12.89,0,0,1-12.81,13,13,13,0,0,1-13-13A12.88,12.88,0,0,1,64.29,8.45Z"/><path class="cls-2" d="M33.21,40.37c-4.16,0-8.33.05-12.49,0a3.89,3.89,0,0,1-2.33-1c-1.7-1.54-3.21-3.27-4.88-4.85-1.1-1-.84-1.84.2-2.67A9.9,9.9,0,0,1,23.94,30.4a2.57,2.57,0,0,0,3-.46c4-3.29,9.45-3.77,13.21.24.34.36,1.26.3,1.89.23,2.08-.22,4.15-.7,6.23-.75a5.42,5.42,0,0,1,3,1.1c2.1,1.45,2,2.93.53,4.94-2.77,3.82-6.24,5.4-11,4.73A53.48,53.48,0,0,0,33.21,40.37Z"/><path class="cls-2" d="M52.2,46.86c-3.47.29-6.85.77-10.24.82-8.8.12-17.61,0-26.42,0-1.36,0-2.57,0-2.51-1.9.07-2.3.54-2.89,2.64-2.9H49C52.16,42.92,52.53,43.34,52.2,46.86Z"/><path class="cls-2" d="M49.91,53v-3.4H70.35V53Z"/><path class="cls-2" d="M65.35,55.77v3.44H45.07V55.77Z"/><path class="cls-2" d="M64.35,84.2H45.06V80.64h8.26a36.61,36.61,0,0,0,5.24,0C61.52,80.17,63.33,81.34,64.35,84.2Z"/><path class="cls-2" d="M61.62,68.19c-1,3.51-1,3.51-4.42,3.51H45.11V68.19Z"/><path class="cls-2" d="M49.9,62h16c-.92,1.13-1.72,2.16-2.58,3.13a1.36,1.36,0,0,1-.92.4c-4.14,0-8.28,0-12.51,0Z"/><path class="cls-2" d="M60.56,74.39l.58,3.38H49.91V74.39Z"/><path class="cls-1" d="M82.65,49.68a8.42,8.42,0,0,1-2.12,1.22c-1.25.29-2.42,1.77-3.77.52-.25-.22,0-1.53.35-1.73A16.07,16.07,0,0,1,81,48.23c.47-.11,1.1.45,1.66.71Z"/><path class="cls-1" d="M72.08,38.11c-.81,2-1.33,3.49-2,4.87-.14.29-1,.47-1.38.31A1.44,1.44,0,0,1,68,42a20.2,20.2,0,0,1,1.42-3.85,1.86,1.86,0,0,1,1.45-.65C71.35,37.53,71.8,38,72.08,38.11Z"/><path class="cls-1" d="M78.81,43.16c-1.47,1.23-2.83,2.4-4.24,3.49-.13.1-.85-.28-1-.57a1.42,1.42,0,0,1,.11-1.26A27.42,27.42,0,0,1,76.5,42a1.59,1.59,0,0,1,1.29-.12C78.1,42,78.28,42.47,78.81,43.16Z"/><path class="cls-2" d="M59.2,20.9c.25,0,.5,0,.74,0,.62,0,1.23-.08,1.85-.14a4,4,0,0,0,2.4-1.18,2.19,2.19,0,0,0,.63-1.2.92.92,0,0,0,0-.18h-6.2l.53-.78c.13-.19.26-.38.38-.58a.24.24,0,0,1,.23-.12c1.54,0,3.09,0,4.64,0h.19a2.81,2.81,0,0,0-.19-.31,2.29,2.29,0,0,0-1-.68,7.7,7.7,0,0,0-1.9-.43,24.68,24.68,0,0,0-2.85-.1h-.07l.33-.46c.24-.35.49-.69.74-1a.26.26,0,0,1,.17-.09H70.11a.67.67,0,0,0-.06.12c-.31.48-.62,1-.92,1.44a.22.22,0,0,1-.21.12H66.44l.48,1a1.17,1.17,0,0,1,.1.26c0,.14.09.17.23.17h2.81l-.27.42L69,18.27a.19.19,0,0,1-.19.1H67.2c-.08.23-.15.45-.23.67a4,4,0,0,1-1.84,2.07,6.11,6.11,0,0,1-1.86.68c-.4.08-.81.14-1.21.21l-.12,0,6.14,7.12h-.14c-.85,0-1.7,0-2.55,0a.35.35,0,0,1-.21-.1l-2.45-2.74L59.78,23c-.12-.13-.23-.27-.36-.39a.71.71,0,0,1-.24-.61c0-.32,0-.65,0-1A.61.61,0,0,1,59.2,20.9Z"/><path class="cls-2" d="M70.61,73.91c.25,0,.5,0,.74,0,.61,0,1.23-.08,1.85-.14a4,4,0,0,0,2.39-1.18,2.21,2.21,0,0,0,.64-1.2,1,1,0,0,0,0-.18H70l.53-.79c.13-.19.26-.37.38-.57a.24.24,0,0,1,.23-.12H76a2.81,2.81,0,0,0-.19-.31,2.29,2.29,0,0,0-1-.68,7.7,7.7,0,0,0-1.9-.43,22.63,22.63,0,0,0-2.85-.1H70l.32-.46c.25-.35.49-.69.75-1a.22.22,0,0,1,.17-.09H81.52s0,.09-.06.12l-.92,1.45a.22.22,0,0,1-.21.12H77.85l.48,1a1.17,1.17,0,0,1,.1.26c0,.14.09.17.23.17.9,0,1.8,0,2.69,0h.12l-.27.43-.77,1.14a.19.19,0,0,1-.19.1H78.61c-.08.23-.15.45-.23.66a4,4,0,0,1-1.84,2.07,5.88,5.88,0,0,1-1.86.69c-.4.08-.81.14-1.22.21l-.11,0,6.14,7.12H76.8a.35.35,0,0,1-.21-.1l-2.45-2.74-3-3.3a3.25,3.25,0,0,0-.35-.39.71.71,0,0,1-.24-.61c0-.33,0-.66,0-1A.61.61,0,0,1,70.61,73.91Z"/><path class="cls-2" d="M47.18,65.44V61.85H42.51V53.14h4.66V50.42a4,4,0,0,0-.61-.13c-9.48,0-19,0-28.44,0a2.24,2.24,0,0,0-1.66,1,94.73,94.73,0,0,0-4.92,9.82,19.94,19.94,0,0,0,.81,17.47c2.85,5.26,7.12,8.5,13.51,8.29,4.83-.15,9.66,0,14.49,0h1.91V78.21H47.1v-4H42.57V65.44ZM39.31,84.2s-9.28.62-13.92,0-9.85-2.86-11.06-12.5S19.85,53,19.85,53H39.31Z"/></svg>