<svg id="Layer_1" data-name="Layer 1" xmlns="http://www.w3.org/2000/svg" viewBox="0 0 91.47 77.33"><defs><style>.cls-1{fill:#d7d7e0;}.cls-2{fill:#f0484d;}</style></defs><title>01</title><path class="cls-1" d="M68,38.56A15.1,15.1,0,1,1,83,23.4,15,15,0,0,1,68,38.56Z"/><path class="cls-2" d="M24,49.75H36.66a2.53,2.53,0,0,1,2,.9c2.32,2.6,4.61,5.21,6.93,7.81a3.63,3.63,0,0,1,1,3.75c-.42,1.29-2,3-3.78,2.86a3.22,3.22,0,0,1-2.06-.84l-3.77-3.64c-.22-.21-.45-.41-.65-.63a1.11,1.11,0,0,1,0-1.58,1.2,1.2,0,0,1,1.6,0c1.34,1.31,2.68,2.63,4,3.91a1.67,1.67,0,0,0,1,.47c.73,0,1.1-.62,1.4-1.19a1.17,1.17,0,0,0-.24-1.38l-4.88-5.5c-.74-.84-1.47-1.68-2.22-2.5a.73.73,0,0,0-.47-.23H24.14L24,52V65.15a3.41,3.41,0,0,1-3.62,3.6H15.24a3.4,3.4,0,0,1-3.53-3.52V48.81a3.42,3.42,0,0,1,3.56-3.54h5.24A3.41,3.41,0,0,1,24,48.65C24,49,24,49.36,24,49.75Z"/><path class="cls-1" d="M49.57,30.72a10,10,0,1,1-10-10A10,10,0,0,1,49.57,30.72Z"/><path class="cls-2" d="M42.72,72.11a5.92,5.92,0,0,1-2.85-.79l-9.21-4.63a1.68,1.68,0,0,1-.58-.48,1.08,1.08,0,0,1,.08-1.35,1.13,1.13,0,0,1,1.26-.27c.51.23,1,.48,1.51.73,2.51,1.26,5,2.53,7.52,3.78a4.18,4.18,0,0,0,2.46.75,4.51,4.51,0,0,0,1.55-.42c3.74-2.06,7.45-4.16,11.17-6.24l6.56-3.66L66.75,57a1.44,1.44,0,0,0,.58-1.62,9.9,9.9,0,0,0-.61-1.47A1.53,1.53,0,0,0,65,53.18L52.34,56.87l-3.21.93a1.13,1.13,0,1,1-.62-2.16l14.2-4.16L64.28,51a3.57,3.57,0,0,1,4.1,1.36,5.5,5.5,0,0,1,1.22,3.71,3.43,3.43,0,0,1-1.76,2.8C65,60.56,62,62.17,59.12,63.8l-4.57,2.56c-2.83,1.58-5.66,3.17-8.5,4.74A5.57,5.57,0,0,1,42.72,72.11Z"/><path class="cls-2" d="M32.28,40.69l-4.4,1.11,1,.55c1.66.91,3.31,1.83,5,2.71a1.58,1.58,0,0,0,.94.09,35.69,35.69,0,0,0,8.71-2.54,80.77,80.77,0,0,0,9.86-5c.89-.52,1.76-1.08,2.64-1.62L57.8,37.5c-.74.47-1.46,1-2.21,1.39-2,1.12-3.91,2.27-5.91,3.32a51.92,51.92,0,0,1-11.12,4.46,41.72,41.72,0,0,1-4.3.8,1.79,1.79,0,0,1-1.06-.2c-2.87-1.55-5.73-3.13-8.59-4.7l-.6-.32a1.12,1.12,0,0,1-.58-1.2,1,1,0,0,1,.9-.9l5.79-1.23a.56.56,0,0,1,.38.09C31.08,39.54,31.64,40.09,32.28,40.69Z"/><path class="cls-2" d="M70.55,43c-.63-.35-1.22-.64-1.77-1s-1-.74-1.66-1.18c.86-.05,1.59,0,2.3-.13a4,4,0,0,1,2.51.39,15.45,15.45,0,0,0,2.35.79,1.14,1.14,0,0,1,.91,1,1.09,1.09,0,0,1-.81,1.13,87.15,87.15,0,0,1-10.24,3.16c-3,.7-5.94,1.37-8.94,1.86a42.46,42.46,0,0,1-11.48.47c-.82-.09-1.64-.24-2.46-.37-.53-.09-.79-.5-1.15-.91.49-.15.91-.26,1.32-.42a6.77,6.77,0,0,1,3.37-.47A39.27,39.27,0,0,0,54.3,47a78.63,78.63,0,0,0,10.2-2.14c1.93-.53,3.84-1.12,5.76-1.69A3.05,3.05,0,0,0,70.55,43Z"/><path class="cls-2" d="M62.81,23c.25,0,.5,0,.74,0l1.85-.13a4,4,0,0,0,2.4-1.18,2.23,2.23,0,0,0,.63-1.2s0-.11,0-.18h-6.2l.52-.79c.13-.19.26-.38.38-.57a.24.24,0,0,1,.23-.12h4.83A2.81,2.81,0,0,0,68,18.5a2.26,2.26,0,0,0-1-.69,7.69,7.69,0,0,0-1.9-.42,22.56,22.56,0,0,0-2.85-.11h-.06l.32-.45c.24-.35.49-.7.74-1a.26.26,0,0,1,.18-.09H73.72a.67.67,0,0,1-.06.12l-.92,1.45a.22.22,0,0,1-.21.11H70.05l.48,1a.77.77,0,0,1,.1.25c0,.15.1.17.23.17l2.7,0h.11l-.27.43-.76,1.14a.2.2,0,0,1-.19.1H70.81a6.59,6.59,0,0,1-.23.67,4,4,0,0,1-1.84,2.07,6.13,6.13,0,0,1-1.86.69c-.4.08-.81.14-1.21.21l-.12,0,6.15,7.12H69a.3.3,0,0,1-.2-.1c-.83-.91-1.64-1.83-2.46-2.74l-3-3.3a4.49,4.49,0,0,0-.36-.39.67.67,0,0,1-.23-.61c0-.33,0-.66,0-1C62.8,23.08,62.81,23,62.81,23Z"/><path class="cls-2" d="M35.68,30.38a5.23,5.23,0,0,0,.56,0l1.39-.1a3,3,0,0,0,1.8-.89,1.62,1.62,0,0,0,.48-.9.62.62,0,0,1,0-.13H35.26l.39-.59.29-.43a.17.17,0,0,1,.17-.09h3.63A2.55,2.55,0,0,0,39.6,27a1.68,1.68,0,0,0-.75-.51,5.39,5.39,0,0,0-1.43-.32,17.1,17.1,0,0,0-2.15-.08h0l.24-.34L36,25a.16.16,0,0,1,.13-.07h7.72l0,.09-.69,1.09a.18.18,0,0,1-.16.09H41.12c.13.25.25.49.36.74a.64.64,0,0,1,.08.19c0,.11.07.13.17.13h2.12l-.21.32-.57.86a.14.14,0,0,1-.14.07H41.7c-.06.17-.11.34-.18.5a3,3,0,0,1-1.38,1.56,4.63,4.63,0,0,1-1.4.52l-.91.16-.09,0,4.62,5.35h-2a.31.31,0,0,1-.15-.08c-.62-.68-1.23-1.37-1.85-2.06L36.11,32a1.8,1.8,0,0,0-.26-.29.53.53,0,0,1-.18-.46c0-.25,0-.49,0-.74C35.67,30.44,35.68,30.41,35.68,30.38Z"/></svg>