<svg id="Layer_1" data-name="Layer 1" xmlns="http://www.w3.org/2000/svg" viewBox="0 0 89.27 95.62"><defs><style>.cls-1{fill:#f0484d;}.cls-2{fill:#d7d7e0;}</style></defs><title>01</title><path class="cls-1" d="M79.88,50.11c-3.71-.51-7.32-1-10.94-1.51L51.58,46.18c-5.35-.74-10.69-1.45-16-2.19a4,4,0,0,1-1.48-.44,1.44,1.44,0,0,1-.56-1.84,1.56,1.56,0,0,1,1.84-1c2.24.29,4.48.6,6.72.91L62.44,44.4l19.85,2.74c1.38.19,1.87,1.14,1.34,2.55Q80.87,57,78.07,64.32c-.94,2.47-1.91,4.93-2.81,7.41a2.06,2.06,0,0,1-2.2,1.51H38.27c-1.44,0-1.76-.26-2.34-1.75Q29.48,54.91,23,38.32a1.28,1.28,0,0,0-1.44-1c-1.64,0-3.28.08-4.91,0-1.05-.06-1.35.32-1.25,1.3a11,11,0,0,1,0,2,1.6,1.6,0,0,1-1.56,1.63,1.56,1.56,0,0,1-1.64-1.55c-.06-1.7-.06-3.41,0-5.12a1.42,1.42,0,0,1,1.49-1.44c3.38,0,6.76,0,10.14,0,.91,0,1.31.67,1.6,1.42q2.3,5.94,4.6,11.87c2.81,7.23,5.64,14.45,8.42,21.69a1.09,1.09,0,0,0,1.21.82q15.95,0,31.88,0c.51,0,.89,0,1.12-.63,2.33-6.22,4.7-12.42,7.06-18.63A3.68,3.68,0,0,0,79.88,50.11Z"/><path class="cls-2" d="M79.58,35.43c-.09,1.26-.11,2.2-.23,3.13-.19,1.34-.92,2-1.94,1.83s-1.35-.92-1.35-2.23a33.21,33.21,0,0,0-.25-6.32,17.89,17.89,0,0,0-18-14.19A18.1,18.1,0,0,0,40.53,32.3c-.25,1.38-.9,2-1.91,1.85s-1.53-1-1.27-2.39a21.25,21.25,0,0,1,41.86.36C79.4,33.31,79.48,34.53,79.58,35.43Z"/><path class="cls-2" d="M72.29,82.26A7.22,7.22,0,1,1,65.05,75,7.29,7.29,0,0,1,72.29,82.26Zm-7.23,4a4,4,0,0,0,4-4,4,4,0,1,0-4,4Z"/><path class="cls-2" d="M39,82.28A7.23,7.23,0,0,1,46.32,75a7.27,7.27,0,0,1-.07,14.54A7.25,7.25,0,0,1,39,82.28Zm11.15.08a3.91,3.91,0,0,0-3.85-4.07,4,4,0,1,0-.07,7.94A3.86,3.86,0,0,0,50.17,82.36Z"/><path class="cls-2" d="M60.56,25.28c-.18.73.15,1.11,1,1.37a5,5,0,0,1,3.6,4.54,1.79,1.79,0,0,1-1.56,2.1c-.88.06-1.58-.64-1.72-1.73a2,2,0,0,0-2-2,7.49,7.49,0,0,0-1.77,0,2,2,0,0,0-1.82,1.6,1.88,1.88,0,0,0,1.12,2.22c1.62.81,3.23,1.62,4.83,2.48a4.93,4.93,0,0,1,3,4.53,1.66,1.66,0,0,1-1.49,1.81A1.53,1.53,0,0,1,62,40.72a2.23,2.23,0,0,0-1.42-2C59,38,57.5,37.21,56,36.41a5,5,0,0,1-3.07-5,5.23,5.23,0,0,1,3.7-4.82c.28-.1.51-.55.61-.88a4.8,4.8,0,0,0,0-1.14,1.66,1.66,0,1,1,3.31-.11C60.58,24.69,60.56,24.94,60.56,25.28Z"/><path class="cls-1" d="M56.2,63.45H70.3c1.38,0,2.14.53,2.19,1.54s-.77,1.73-2.15,1.73q-12.12,0-24.24,0c-1.4,0-2.79,0-4.18,0s-2.08-.74-2-1.75.8-1.52,2.1-1.52Z"/><path class="cls-1" d="M56.13,60.17H41.92c-1.26,0-2-.6-2-1.59s.76-1.65,2-1.65H70.52c.84,0,1.6.23,1.8,1.09A2,2,0,0,1,72,59.6a2.33,2.33,0,0,1-1.57.55c-4.77,0-9.54,0-14.31,0Z"/><path class="cls-1" d="M53,50.45c3.69,0,7.38,0,11.07,0,1.21,0,1.91.61,1.92,1.59s-.73,1.62-1.91,1.62q-11,0-22,0c-1.34,0-2.13-.62-2.13-1.62s.78-1.6,2.12-1.6H53Z"/></svg>