<svg id="Layer_1" data-name="Layer 1" xmlns="http://www.w3.org/2000/svg" viewBox="0 0 91.94 93.78"><defs><style>.cls-1{fill:#f0484d;stroke:#f0484d;}.cls-1,.cls-2{stroke-miterlimit:10;}.cls-2{fill:#d7d7e0;stroke:#d7d7e0;}</style></defs><title>01</title><path class="cls-1" d="M52.12,76.63c-10.25,2.06-25.22-2.24-32.94-15.8A31.88,31.88,0,1,1,76.7,56.7l-2.17-.84c.42-1.55.9-3,1.23-4.53a29.12,29.12,0,0,0-11.6-30A29.23,29.23,0,0,0,25.57,25.1a28.56,28.56,0,0,0-7.88,17A29.6,29.6,0,0,0,40.69,74a27.62,27.62,0,0,0,10.05.37c.71-.1,1.18-.06,1.16.84A7.52,7.52,0,0,0,52.12,76.63Z"/><path class="cls-2" d="M66,57.52c1.89-.69,3.29,0,4.46,1.56a3.34,3.34,0,0,1,3-.37,4.24,4.24,0,0,1,2.24,2.06,3.4,3.4,0,0,1,4,.59A3.58,3.58,0,0,1,81,64c0,2.14.05,4.28-.12,6.4a11.41,11.41,0,0,1-1,3.38c-.63,1.48-1.42,2.89-2.17,4.31a6.84,6.84,0,0,0-.85,3.4c0,1.27,0,2.55,0,3.86H60.25c0-1.53,0-3,0-4.5a1.77,1.77,0,0,0-.44-1.1,19.71,19.71,0,0,1-4.06-5.7c-1.46-3.52-2.87-7-4.3-10.58a6.37,6.37,0,0,0-.36-.85c-1.34-2.23,1-5,3.58-4.76a3.59,3.59,0,0,1,3.11,2.25,17.12,17.12,0,0,0,.77,1.64c0-.18,0-.37,0-.56q0-5.32,0-10.67a3.7,3.7,0,0,1,5-3.69,3.91,3.91,0,0,1,2.37,3.86c0,2.09,0,4.17.06,6.26C66,57.15,66,57.31,66,57.52Zm2.64,5.24c0-.71,0-1.39,0-2.07a1.13,1.13,0,0,0-1.32-1.14,1.14,1.14,0,0,0-1.26,1.15c-.08.86-.56,1.39-1.24,1.35a1.32,1.32,0,0,1-1.14-1.46c0-3.46-.08-6.92-.16-10.38a1.49,1.49,0,0,0-.4-.92A1.14,1.14,0,0,0,61.71,49a1.37,1.37,0,0,0-.81,1.36q0,8.82,0,17.64c0,.85-.34,1.35-.95,1.45s-1.09-.2-1.41-1l-1.86-4.75c-.38-1-.73-1.9-1.14-2.83-.32-.71-1.06-.88-1.89-.51s-.84.44-.44,1.42c1.44,3.52,2.89,7,4.31,10.57A17.79,17.79,0,0,0,60.35,77,4.08,4.08,0,0,0,64,78.64c3.64-.14,7.3,0,10.91,0,1-2,2-3.88,2.9-5.81a5.59,5.59,0,0,0,.66-2c.1-2.39.1-4.78.08-7.17,0-.64-.62-1-1.36-.94A1.11,1.11,0,0,0,76,63.72c0,.3,0,.6-.06.89H73.66c0-.88,0-1.73,0-2.57s-.46-1.23-1.31-1.23a1.14,1.14,0,0,0-1.29,1.25c0,.23,0,.46-.06.7Zm5.82,20.35V80.92H62.59v2.19Z"/><path class="cls-1" d="M49.35,66l.25,2.34c-7.14,1.23-17.94-2.38-23.22-12.1a23.69,23.69,0,0,1,5.3-28.74C39.2,20.77,51.68,20,60,25.67c9.31,6.37,12.1,17.89,9.42,26L67.08,51c1.89-7.23.64-13.8-4.24-19.49a20.3,20.3,0,0,0-14.28-7.28A21,21,0,0,0,26.11,43.52a20.56,20.56,0,0,0,6.36,16.69C37.11,64.77,42.82,66.52,49.35,66Z"/><path class="cls-1" d="M51.92,52.56V55H42.14V52.61h3.57V37.88H43.36V35.47h4.89V52.56Z"/><path class="cls-1" d="M48.21,32.92H45.79V30.57h2.42Z"/></svg>