<svg id="Layer_1" data-name="Layer 1" xmlns="http://www.w3.org/2000/svg" viewBox="0 0 107.88 82.02"><defs><style>.cls-1{fill:#d7d7e0;}.cls-2{fill:#f0484d;}</style></defs><title>01</title><path class="cls-1" d="M49.79,59.87a5.9,5.9,0,1,1,.1-11.8,5.9,5.9,0,1,1-.1,11.8Zm2.6-5.79a2.55,2.55,0,1,0-2.53,2.51A2.59,2.59,0,0,0,52.39,54.08Z"/><path class="cls-1" d="M67.27,48.07a5.9,5.9,0,1,1-5.85,6A5.92,5.92,0,0,1,67.27,48.07Zm2.62,5.82a2.63,2.63,0,0,0-2.63-2.54,2.62,2.62,0,0,0,.15,5.24A2.64,2.64,0,0,0,69.89,53.89Z"/><path class="cls-2" d="M97.93,61.6H90.41V26.07c0-3.61-2.08-5.71-5.67-5.72H72.89v2.58H84.23c2.82,0,3.61.79,3.61,3.64V61.5H85.29V25.59H72.89v2.62h9.68V61.55H31.18V28.21h9.71V25.59H28.58v36H25.93V26.37c0-2.56.91-3.45,3.5-3.45H40.89V20.35H29.13c-3.69,0-5.77,2.1-5.77,5.8V61.66H15.63v1.69c0,5.43,3.16,8.58,8.58,8.58H89.65C95.59,71.92,99.11,67.59,97.93,61.6Zm-7.85,7.74q-11.83,0-23.69,0H23.85c-3.27,0-5.33-1.84-5.59-5.12H46.48c.06.82.11,1.59.17,2.45H67.12c0-.75.09-1.52.15-2.4H95.42C95.53,67.22,93.32,69.34,90.08,69.34Z"/><path class="cls-1" d="M42.51,20h4.38v-2.2c0-2.48,0-5,0-7.44,0-1.92.89-2.79,2.79-2.79h6.79c2.78,0,3.39.56,3.56,3.5h2.52c1.7,0,3.4,0,5.09,0a2.5,2.5,0,0,1,2.8,2.83c0,2,0,4,0,6.16,1.58,0,3,0,4.51,0,1.61,0,2,.5,1.74,2.05-.36,2-.75,4-1.15,6-.18.92-.56,1.79-1.69,1.52s-1.16-1.09-.93-2.08c.37-1.56.62-3.14.94-4.8H43.12c.5,2.33,1,4.6,1.49,6.87.31,1.44.71,2.87,1,4.32.15.88.55,1.11,1.39,1.1,4.87,0,9.75,0,14.62,0,.43,0,1-.1,1.27.12a2.19,2.19,0,0,1,.94,1.34c0,.37-.57.88-1,1.13a2.69,2.69,0,0,1-1.28.11h-15a1.94,1.94,0,0,0-.09.38c1,5.11.62,4.73,5.55,4.72,4.22,0,8.44,0,12.67,0,.34,0,.81-.12,1,.06.44.38,1,.91,1,1.4s-.64.9-1.11,1.13a3.69,3.69,0,0,1-1.42.07c-4.83,0-9.66,0-14.49,0-3.12,0-4.69-1.36-5.35-4.39q-2.74-12.85-5.55-25.7c-.37-1.71-.94-2.14-2.7-2.16a7.63,7.63,0,0,1-2.2-.1,1.77,1.77,0,0,1-1-1.24c0-.42.61-1.23,1-1.24a18.3,18.3,0,0,1,4.74.37,3.82,3.82,0,0,1,2.6,3C41.63,16,42.05,18,42.51,20Zm14.77,0V10.25H49.61V20ZM60,20h7.71V13.85H60Z"/><path class="cls-1" d="M76.29,39.31l3.49,3.3c.69.64,1,1.38.3,2.14s-1.49.44-2.14-.24c-1.08-1.13-2.16-2.24-3.35-3.49-.74,1.37-1.3,2.54-2,3.61-.3.45-1,1-1.35.95a2.1,2.1,0,0,1-1.31-1.17Q67.55,38.22,65.35,32a2.09,2.09,0,0,1,.25-1.75A1.9,1.9,0,0,1,67.23,30q6.26,2.21,12.46,4.58a2,2,0,0,1,1.14,1.31c0,.47-.55,1.1-1,1.42C78.77,38,77.62,38.58,76.29,39.31Zm-4.94,1.45.38.17c.56-2.43,2.28-3.74,4.74-4.68l-7.84-2.86Z"/></svg>