<svg id="Layer_1" data-name="Layer 1" xmlns="http://www.w3.org/2000/svg" viewBox="0 0 75.39 83.97"><defs><style>.cls-1{fill:#f0484d;}.cls-2{fill:#d7d7e0;}</style></defs><title>01</title><path class="cls-1" d="M33.54,10.39a3.53,3.53,0,0,1,.49,1c.06.55-.39.87-1.06.87H17.58a3.26,3.26,0,0,0-3.47,3.47V64.82a3.27,3.27,0,0,0,3.52,3.55H42.54c.77,0,1.22.39,1.2,1s-.46.93-1.19.93q-12.58,0-25.16,0a5.13,5.13,0,0,1-5.18-5.35c0-5.67,0-11.35,0-17V15.76a5.12,5.12,0,0,1,4.09-5.26.91.91,0,0,0,.22-.11Z"/><path class="cls-1" d="M53.59,10.39a1.11,1.11,0,0,0,.27.13,5.2,5.2,0,0,1,4,5.17q0,16.71,0,33.41a1.3,1.3,0,0,1-.11.73c-.24.27-.6.62-.9.61s-.62-.39-.86-.67-.08-.4-.08-.61q0-16.6,0-33.22a3.55,3.55,0,0,0-.78-2.51,3.41,3.41,0,0,0-2.69-1.15H37.18c-.49,0-.92-.06-1.14-.58s.08-1,.53-1.32Z"/><path class="cls-2" d="M54.24,52.56c2-.45,2.64-.34,4.06.74a3.51,3.51,0,0,1,4.92-.07A12.24,12.24,0,0,1,65,52.41a3.4,3.4,0,0,1,4.28,3.14c0,1.52,0,3,0,4.54,0,.68-.4,1.11-1,1.09s-.93-.45-.94-1.12V56a1.58,1.58,0,0,0-1.26-1.71,1.48,1.48,0,0,0-1.74,1,1.13,1.13,0,0,1-1.06.76,1.09,1.09,0,0,1-1-.78,1.54,1.54,0,0,0-2.89,0,1.1,1.1,0,0,1-1,.79,1.13,1.13,0,0,1-1.08-.81,1.52,1.52,0,0,0-1.6-1,1.55,1.55,0,0,0-1.38,1.42c-.15.78-.47,1.1-1.06,1s-.86-.46-.86-1.24v-8A1.6,1.6,0,0,0,51,45.7a1.51,1.51,0,0,0-1.68,1.67c0,2.78,0,5.55,0,8.33,0,2.16,0,4.33,0,6.49,0,.54-.11,1-.68,1.23s-.9-.14-1.23-.52c-1.24-1.49-2.49-3-3.73-4.45-.79-1-1.56-1.14-2.31-.55a1.93,1.93,0,0,0-.3,2.71C42,61.8,43,62.94,43.92,64.1c1.52,1.8,3,3.62,4.56,5.39a2.69,2.69,0,0,1,.79,2.22c0,.27,0,.55,0,.82s.17.56.57.56c4.14,0,8.28,0,12.42,0a5.22,5.22,0,0,0,5.1-5.34V64.18c0-.7.4-1.15,1-1.14s.93.44.92,1.13a38.27,38.27,0,0,1-.17,5A7,7,0,0,1,62.18,75C58,75,53.86,75,49.7,75a2.14,2.14,0,0,1-2.34-2.3,3.85,3.85,0,0,0-1.15-2.91C44,67.19,41.81,64.57,39.63,62a3.82,3.82,0,0,1,1.75-6.17,3.19,3.19,0,0,1,3.4,1.08c.82.93,1.6,1.88,2.54,2.79V54.83H20.67c-1.82,0-2.5-.69-2.5-2.52v-3a2,2,0,0,1,2.22-2.23H46.31c.63,0,1,0,1.21-.83a3.34,3.34,0,0,1,3.84-2.41,3.44,3.44,0,0,1,2.87,3.34c0,.91,0,1.81,0,2.72ZM20.14,49v3.86H47.27V49Z"/><path class="cls-1" d="M35,43.58H20.5c-1.6,0-2.33-.74-2.33-2.35V38.07a2.05,2.05,0,0,1,2.25-2.28h29a2.13,2.13,0,0,1,2,.87,2.56,2.56,0,0,1,.34,1.18c0,1.21,0,2.44,0,3.65a1.92,1.92,0,0,1-2.07,2.09ZM20.15,41.64H49.9V37.77H20.15Z"/><path class="cls-1" d="M35.05,32.82a8.54,8.54,0,0,1-1.4-17,7.6,7.6,0,0,1,1.07-.1c.73,0,1.18.29,1.23.87s-.36,1-1.13,1.06a6.37,6.37,0,0,0-4.17,1.67A6.57,6.57,0,0,0,29,27a6.68,6.68,0,0,0,6.79,3.82,6.59,6.59,0,0,0,5.7-5.57c0-.31.08-.62.1-.94a1,1,0,1,1,1.89.07,8.45,8.45,0,0,1-6.23,8.08C36.55,32.64,35.79,32.7,35.05,32.82Z"/><path class="cls-1" d="M24.5,57.59c1.09,0,2.18,0,3.28,0a3,3,0,0,1,3.09,3.11c0,.37,0,.75,0,1.13a2.94,2.94,0,0,1-3,3.13c-2.24.05-4.49.06-6.74,0a3,3,0,0,1-3-3.09v-1.2a3,3,0,0,1,3.12-3.08C22.36,57.58,23.43,57.59,24.5,57.59Zm0,5.43h3.21c.9,0,1.23-.35,1.25-1.26,0-.3,0-.59,0-.88,0-1-.32-1.35-1.35-1.36-1.76,0-3.53,0-5.29,0-2.28-.05-2.23.25-2.19,2.34,0,.8.37,1.15,1.16,1.16C22.34,63,23.41,63,24.48,63Z"/><path class="cls-1" d="M36,26.9c.26,0,.42,0,.59,0a1,1,0,0,1,.89,1,1,1,0,0,1-.94.91c-.94,0-1.89,0-2.83,0-.66,0-1.05-.34-1.08-.89s.39-1,1-1l.36,0V21.65c-1-.12-1.44-.44-1.39-1.08s.46-.88,1.48-.88c1.84,0,1.87,0,1.87,1.87Z"/><path class="cls-1" d="M38.7,20.19c-.41,0-.76,0-1.11,0a1,1,0,1,1,0-1.92c.35,0,.71,0,1.05,0,.23-.8-.34-2.05,1-2s.81,1.21,1,2h1a1,1,0,0,1,1.11,1,1,1,0,0,1-1.1,1c-.32,0-.63,0-1,0,0,.36,0,.67,0,1,0,.69-.37,1.09-1,1.1s-.94-.38-.95-1.07C38.69,20.89,38.7,20.58,38.7,20.19Z"/><path class="cls-1" d="M30.54,51.89A1,1,0,0,1,29.41,51a1.09,1.09,0,0,1,2.17,0A1,1,0,0,1,30.54,51.89Z"/><path class="cls-1" d="M26.6,51.89a1,1,0,1,1,0-1.89,1,1,0,0,1,1.09,1A1,1,0,0,1,26.6,51.89Z"/><path class="cls-1" d="M38.22,51.89a.95.95,0,1,1,0-1.89,1,1,0,1,1,0,1.89Z"/><path class="cls-1" d="M22.78,50a.93.93,0,0,1,1,.92.94.94,0,0,1-1.06,1,1,1,0,0,1-1.08-1C21.69,50.35,22.11,50,22.78,50Z"/><path class="cls-1" d="M34.33,51.89a1,1,0,0,1-1-1c0-.57.45-.92,1.13-.9a.93.93,0,0,1,1,1C35.42,51.54,35,51.9,34.33,51.89Z"/></svg>