<?xml version="1.0"?>
<svg xmlns="http://www.w3.org/2000/svg" xmlns:xlink="http://www.w3.org/1999/xlink" xmlns:svgjs="http://svgjs.com/svgjs" version="1.1" width="512" height="512" x="0" y="0" viewBox="0 0 497 497" style="enable-background:new 0 0 512 512" xml:space="preserve" class=""><g>
<g xmlns="http://www.w3.org/2000/svg">
	<path style="" d="M497,248.5C497,385.74,385.74,497,248.5,497S0,385.74,0,248.5S111.26,0,248.5,0   S497,111.26,497,248.5z" fill="#ff1f3e" data-original="#ff1f3e" class=""/>
	<path style="" d="M497,248.5C497,385.74,385.74,497,248.5,497V0C385.74,0,497,111.26,497,248.5z" fill="#c9001c" data-original="#c9001c" class=""/>
	<path style="" d="M353.25,100.45L248.5,205.2c-68.51,68.51-145.75,145.75-148.05,148.05   c-0.04,0.04-0.05,0.05-0.05,0.05c-2.22,2.16-5.9,1.81-7.64-0.79c-50.375-75.271-41.339-182.286,33.61-245.977   C160.137,77.838,203.64,61.289,248.5,61.08c35.18-0.16,71.2,9.72,104.01,31.68C355.13,94.51,355.47,98.23,353.25,100.45z" fill="#fff5cc" data-original="#fff5cc" class=""/>
	<path style="" d="M353.25,100.45L248.5,205.2V61.08c35.18-0.16,71.2,9.72,104.01,31.68   C355.13,94.51,355.47,98.23,353.25,100.45z" fill="#ffe1bb" data-original="#ffe1bb" class=""/>
	<path style="" d="M353.25,403.81c-31.51,21.27-68.1,31.97-104.75,31.97c-36.24,0-72.53-10.47-104.01-31.54   c-2.62-1.75-2.96-5.47-0.74-7.69l252.8-252.8c2.22-2.22,5.94-1.88,7.69,0.74C460.7,228.85,439.91,345.29,353.25,403.81z" fill="#fff5cc" data-original="#fff5cc" class=""/>
	<path style="" d="M353.25,403.81c-31.51,21.27-68.1,31.97-104.75,31.97V291.8l148.05-148.05   c2.22-2.22,5.94-1.88,7.69,0.74C460.7,228.85,439.91,345.29,353.25,403.81z" fill="#ffe1bb" data-original="#ffe1bb" class=""/>
</g>















</g></svg>
