<?xml version="1.0"?>
<svg xmlns="http://www.w3.org/2000/svg" xmlns:xlink="http://www.w3.org/1999/xlink" xmlns:svgjs="http://svgjs.com/svgjs" version="1.1" width="512" height="512" x="0" y="0" viewBox="0 0 512 512" style="enable-background:new 0 0 512 512" xml:space="preserve" class=""><g><g xmlns="http://www.w3.org/2000/svg"><g><path d="m390.55 504.5h-279.1c-13.807 0-25-11.193-25-25v-94.847l10-342.153c0-13.807 11.193-25 25-25h269.1c13.807 0 25 11.193 25 25v437c0 13.807-11.193 25-25 25z" fill="#245e7c" data-original="#245e7c" style="" class=""/><path d="m400.55 7.5h-30c13.807 0 25 11.193 25 25v447c0 13.807-11.193 25-25 25h30c13.807 0 25-11.193 25-25v-447c0-13.807-11.193-25-25-25z" fill="#1a4c65" data-original="#1a4c65" style="" class=""/><path d="m390.55 7.5h-279.1c-13.807 0-25 11.193-25 25v352.153h309.1l20-352.153c0-13.807-11.193-25-25-25z" fill="#f9f6f9" data-original="#f9f6f9" style="" class=""/><path d="m400.55 7.5h-30c13.807 0 25 11.193 25 25v352.153h30v-352.153c0-13.807-11.193-25-25-25z" fill="#dedbec" data-original="#dedbec" style="" class=""/><path d="m280.719 414.653h-49.439c-16.191 0-29.317 13.126-29.317 29.317 0 16.191 13.126 29.317 29.317 29.317h49.439c16.191 0 29.317-13.126 29.317-29.317.001-16.192-13.125-29.317-29.317-29.317z" fill="#f9f6f9" data-original="#f9f6f9" style="" class=""/><path d="m469.5 96.094h-437c-13.807 0-25 11.193-25 25v131.471c0 13.807 11.193 25 25 25h173.162c5.359 0 10.311 2.859 12.99 7.5l33.165 57.443c1.924 3.333 6.736 3.333 8.66 0l33.165-57.443c2.68-4.641 7.631-7.5 12.99-7.5h162.868c13.807 0 25-11.193 25-25v-131.471c0-13.807-11.193-25-25-25z" fill="#ef484c" data-original="#95c7f8" style="" class=""/><g><path d="m479.5 96.094h-30c13.807 0 25 11.193 25 25v131.471c0 13.807-11.193 25-25 25h30c13.807 0 25-11.193 25-25v-131.471c0-13.807-11.193-25-25-25z" fill="#ef484c" data-original="#75b5f8" style="" class=""/></g><g fill="#ffe187"><path d="m99.536 223.466-24.731 13.002c-3.668 1.928-7.955-1.186-7.255-5.271l4.723-27.539c.278-1.622-.26-3.277-1.438-4.426l-20.008-19.502c-2.968-2.893-1.33-7.932 2.771-8.528l27.65-4.018c1.629-.237 3.036-1.26 3.765-2.735l12.366-25.055c1.834-3.716 7.133-3.716 8.967 0l12.366 25.055c.728 1.476 2.136 2.499 3.765 2.735l27.65 4.018c4.101.596 5.739 5.636 2.771 8.528l-20.008 19.503c-1.178 1.149-1.716 2.804-1.438 4.426l4.723 27.539c.701 4.084-3.587 7.199-7.255 5.271l-24.731-13.002c-1.457-.767-3.197-.767-4.653-.001z" fill="#ffe187" data-original="#ffe187" style="" class=""/><path d="m253.673 223.466-24.731 13.002c-3.668 1.928-7.955-1.186-7.255-5.271l4.723-27.539c.278-1.622-.26-3.277-1.438-4.426l-20.008-19.503c-2.968-2.893-1.33-7.932 2.771-8.528l27.65-4.018c1.629-.237 3.036-1.26 3.765-2.735l12.365-25.055c1.834-3.716 7.133-3.716 8.967 0l12.366 25.055c.728 1.476 2.136 2.499 3.765 2.735l27.65 4.018c4.101.596 5.739 5.636 2.771 8.528l-20.008 19.503c-1.178 1.149-1.716 2.804-1.438 4.426l4.723 27.539c.701 4.084-3.587 7.199-7.255 5.271l-24.731-13.002c-1.455-.766-3.195-.766-4.652 0z" fill="#ffe187" data-original="#ffe187" style="" class=""/><path d="m407.811 223.466-24.731 13.002c-3.668 1.928-7.955-1.186-7.255-5.271l4.723-27.539c.278-1.622-.259-3.277-1.438-4.426l-20.008-19.503c-2.968-2.893-1.33-7.932 2.771-8.528l27.65-4.018c1.629-.237 3.036-1.26 3.765-2.735l12.365-25.055c1.834-3.716 7.133-3.716 8.967 0l12.366 25.055c.728 1.476 2.136 2.499 3.765 2.735l27.65 4.018c4.101.596 5.739 5.636 2.771 8.528l-20.008 19.503c-1.178 1.149-1.716 2.804-1.438 4.426l4.723 27.539c.701 4.084-3.587 7.199-7.255 5.271l-24.731-13.002c-1.455-.766-3.195-.766-4.652 0z" fill="#ffe187" data-original="#ffe187" style="" class=""/></g></g><g><path d="m231.28 407.153c-20.301 0-36.816 16.516-36.816 36.817s16.516 36.817 36.816 36.817h49.439c20.301 0 36.816-16.516 36.816-36.817s-16.516-36.817-36.816-36.817zm71.256 36.817c0 12.03-9.787 21.817-21.816 21.817h-49.44c-12.029 0-21.816-9.787-21.816-21.817s9.787-21.817 21.816-21.817h49.439c12.03 0 21.817 9.787 21.817 21.817z" fill="#000000" data-original="#000000" style="" class=""/><path d="m201.964 63.95h108.072c4.143 0 7.5-3.358 7.5-7.5s-3.357-7.5-7.5-7.5h-108.072c-4.143 0-7.5 3.358-7.5 7.5s3.357 7.5 7.5 7.5z" fill="#000000" data-original="#000000" style="" class=""/><path d="m151.204 163.78-26.349-3.829-11.784-23.876c-2.121-4.298-6.416-6.968-11.209-6.968s-9.088 2.67-11.209 6.968l-11.784 23.877-26.349 3.829c-4.743.689-8.61 3.949-10.092 8.508-1.48 4.558-.269 9.468 3.163 12.814l19.067 18.586-4.502 26.243c-.81 4.724 1.097 9.409 4.975 12.226 2.191 1.591 4.754 2.4 7.334 2.4 1.987 0 3.984-.479 5.829-1.449l23.567-12.391 23.567 12.39c4.239 2.229 9.284 1.867 13.163-.95 3.878-2.817 5.784-7.502 4.974-12.227l-4.501-26.242 19.066-18.585c3.433-3.346 4.645-8.256 3.164-12.814-1.48-4.561-5.347-7.822-10.09-8.51zm-23.55 30.082c-2.944 2.871-4.289 7.005-3.595 11.064l3.867 22.545-20.249-10.645c-3.641-1.914-7.99-1.914-11.631 0-.001 0-.001 0-.002 0l-20.247 10.645 3.868-22.549c.693-4.055-.651-8.19-3.596-11.061l-16.381-15.967 22.636-3.289c4.074-.591 7.594-3.148 9.413-6.838l10.124-20.513 10.123 20.51c1.82 3.692 5.34 6.249 9.413 6.84l22.637 3.29z" fill="#000000" data-original="#000000" style="" class=""/><path d="m305.342 163.78-26.349-3.829-11.784-23.876c-2.121-4.298-6.416-6.968-11.209-6.968s-9.088 2.67-11.209 6.968l-11.784 23.877-26.349 3.829c-4.743.689-8.61 3.949-10.092 8.508-1.48 4.558-.269 9.468 3.163 12.814l19.067 18.586-4.502 26.243c-.81 4.724 1.097 9.409 4.975 12.226 2.191 1.591 4.754 2.4 7.334 2.4 1.987 0 3.984-.479 5.829-1.449l23.568-12.393 23.567 12.39c4.238 2.229 9.284 1.867 13.163-.95 3.878-2.817 5.784-7.502 4.974-12.227l-4.501-26.242 19.066-18.585c3.433-3.346 4.645-8.256 3.164-12.814-1.481-4.559-5.348-7.82-10.091-8.508zm-23.55 30.082c-2.944 2.871-4.289 7.005-3.595 11.064l3.867 22.545-20.249-10.645c-3.641-1.914-7.99-1.914-11.631 0-.001 0-.001 0-.002 0l-20.247 10.645 3.868-22.549c.693-4.055-.651-8.19-3.596-11.061l-16.381-15.967 22.636-3.289c4.074-.591 7.594-3.148 9.413-6.838l10.125-20.512 10.123 20.51c1.82 3.692 5.34 6.249 9.413 6.84l22.637 3.29z" fill="#000000" data-original="#000000" style="" class=""/><path d="m459.479 163.78-26.349-3.829-11.784-23.876c-2.121-4.298-6.416-6.968-11.209-6.968s-9.088 2.67-11.209 6.968l-11.784 23.877-26.349 3.829c-4.743.689-8.61 3.949-10.092 8.508-1.48 4.558-.269 9.468 3.163 12.814l19.067 18.586-4.502 26.243c-.81 4.724 1.097 9.409 4.975 12.226 2.19 1.591 4.754 2.4 7.334 2.4 1.987 0 3.984-.479 5.829-1.449l23.567-12.391 23.567 12.39c4.239 2.229 9.285 1.867 13.163-.95s5.784-7.502 4.974-12.227l-4.501-26.242 19.066-18.585c3.433-3.346 4.645-8.256 3.164-12.814-1.479-4.561-5.346-7.822-10.09-8.51zm-23.549 30.082c-2.944 2.871-4.289 7.005-3.595 11.064l3.867 22.545-20.249-10.645c-3.641-1.914-7.99-1.914-11.631 0-.001 0-.001 0-.002 0l-20.247 10.645 3.868-22.549c.693-4.055-.651-8.19-3.596-11.061l-16.381-15.967 22.636-3.289c4.074-.591 7.594-3.148 9.413-6.838l10.124-20.513 10.123 20.51c1.82 3.692 5.34 6.249 9.413 6.84l22.637 3.29z" fill="#000000" data-original="#000000" style="" class=""/><path d="m479.5 88.594h-46.45v-56.094c0-17.92-14.579-32.5-32.5-32.5h-289.1c-17.921 0-32.5 14.58-32.5 32.5v56.094h-46.45c-17.921 0-32.5 14.58-32.5 32.5v131.471c0 17.92 14.579 32.5 32.5 32.5h46.45v23.081c0 4.142 3.357 7.5 7.5 7.5s7.5-3.358 7.5-7.5v-23.081h111.712c2.671 0 5.159 1.437 6.495 3.75l33.164 57.443c2.26 3.913 6.306 6.25 10.824 6.25h.002c4.518 0 8.565-2.336 10.825-6.25l33.165-57.443c1.336-2.313 3.824-3.75 6.495-3.75h111.418v92.087h-54.754c-4.143 0-7.5 3.358-7.5 7.5s3.357 7.5 7.5 7.5h54.754v87.348c0 9.649-7.851 17.5-17.5 17.5h-289.1c-9.649 0-17.5-7.851-17.5-17.5v-87.347h236.659c4.143 0 7.5-3.358 7.5-7.5s-3.357-7.5-7.5-7.5h-236.659v-35.233c0-4.142-3.357-7.5-7.5-7.5s-7.5 3.358-7.5 7.5v137.58c0 17.92 14.579 32.5 32.5 32.5h289.1c17.921 0 32.5-14.58 32.5-32.5v-194.435h46.45c17.921 0 32.5-14.58 32.5-32.5v-131.471c0-17.92-14.579-32.5-32.5-32.5zm17.5 163.971c0 9.649-7.851 17.5-17.5 17.5h-172.867c-8.013 0-15.479 4.311-19.485 11.25l-31 53.693-31-53.693c-4.007-6.939-11.473-11.25-19.485-11.25h-173.163c-9.649 0-17.5-7.851-17.5-17.5v-131.471c0-9.649 7.851-17.5 17.5-17.5h105.569c4.143 0 7.5-3.358 7.5-7.5s-3.357-7.5-7.5-7.5h-44.119v-56.094c0-9.649 7.851-17.5 17.5-17.5h289.1c9.649 0 17.5 7.851 17.5 17.5v56.094h-247.294c-4.143 0-7.5 3.358-7.5 7.5s3.357 7.5 7.5 7.5h308.744c9.649 0 17.5 7.851 17.5 17.5z" fill="#000000" data-original="#000000" style="" class=""/></g></g></g></svg>
